<?xml version="1.0" encoding="UTF-8" standalone="no"?>
<!-- Created with Inkscape (http://www.inkscape.org/) -->

<svg
   width="210mm"
   height="297mm"
   viewBox="0 0 210 297"
   version="1.1"
   id="svg5"
   inkscape:version="1.1 (c4e8f9e, 2021-05-24)"
   sodipodi:docname="Title.svg"
   xmlns:inkscape="http://www.inkscape.org/namespaces/inkscape"
   xmlns:sodipodi="http://sodipodi.sourceforge.net/DTD/sodipodi-0.dtd"
   xmlns="http://www.w3.org/2000/svg"
   xmlns:svg="http://www.w3.org/2000/svg">
  <sodipodi:namedview
     id="namedview7"
     pagecolor="#1f1f1f"
     bordercolor="#666666"
     borderopacity="1.0"
     inkscape:pageshadow="2"
     inkscape:pageopacity="0"
     inkscape:pagecheckerboard="0"
     inkscape:document-units="mm"
     showgrid="false"
     inkscape:snap-global="false"
     inkscape:zoom="1.9704153"
     inkscape:cx="396.87064"
     inkscape:cy="277.09894"
     inkscape:window-width="1680"
     inkscape:window-height="1050"
     inkscape:window-x="0"
     inkscape:window-y="0"
     inkscape:window-maximized="0"
     inkscape:current-layer="g5083" />
  <defs
     id="defs2">
    <linearGradient
       id="linearGradient3986"
       inkscape:swatch="solid">
      <stop
         style="stop-color:#4d4d4d;stop-opacity:1;"
         offset="0"
         id="stop3984" />
    </linearGradient>
  </defs>
  <g
     inkscape:label="Layer 1"
     inkscape:groupmode="layer"
     id="layer1">
    <g
       aria-label="Swing"
       id="text561"
       style="font-size:4.9389px;line-height:1.25;font-family:'Liberation Sans';-inkscape-font-specification:'Liberation Sans';stroke-width:0.264583">
      <path
         d="m 64.77537,89.037351 q 0,4.443914 -3.486816,6.882421 -3.464023,2.438506 -9.776744,2.438506 -11.736659,0 -13.605409,-8.158658 l 4.216082,-0.84295 q 0.729265,2.894285 3.09939,4.261622 2.370126,1.344656 6.449464,1.344656 4.216082,0 6.495042,-1.435755 2.301754,-1.45853 2.301754,-4.261716 0,-1.572499 -0.729265,-2.552381 -0.70649,-0.979976 -2.005493,-1.618142 -1.299003,-0.637883 -3.09939,-1.071076 -1.800379,-0.432815 -3.988183,-0.934615 -3.805862,-0.84295 -5.788561,-1.686467 -1.959906,-0.84295 -3.099391,-1.868759 -1.139485,-1.048301 -1.7548,-2.438507 -0.592522,-1.390111 -0.592522,-3.190546 0,-4.124879 3.144968,-6.358318 3.167762,-2.233345 9.047479,-2.233345 5.469516,0 8.363792,1.686467 2.894285,1.663598 4.056554,5.697377 l -4.284444,0.752229 q -0.70649,-2.55238 -2.68918,-3.691875 -1.982699,-1.162269 -5.4923,-1.162269 -3.851449,0 -5.879726,1.276143 -2.028268,1.276238 -2.028268,3.805938 0,1.481304 0.774815,2.461281 0.797589,0.957107 2.27896,1.640823 1.481324,0.660562 5.90251,1.640822 1.481334,0.342094 2.939864,0.706868 1.481323,0.342094 2.825913,0.84295 1.34459,0.478176 2.50686,1.139495 1.185062,0.660562 2.05107,1.618047 0.866008,0.957202 1.344581,2.256214 0.501423,1.299012 0.501423,3.053803 z"
         id="path2595"
         style="stroke-width:2.50034;fill:#ffffff" />
      <path
         d="M 93.718195,97.902499 H 88.95516 L 84.647922,80.468463 83.827464,76.616976 q -0.205068,1.025526 -0.638072,2.96261 -0.433004,1.914403 -4.649076,18.322913 H 73.800075 L 66.894813,73.244138 h 4.056554 l 4.170504,16.75032 q 0.159518,0.547162 0.979948,4.512333 l 0.387455,-1.686372 5.150451,-19.576281 h 4.398403 l 4.307238,16.932707 1.048319,4.329946 0.70649,-3.167677 4.67187,-18.094976 h 4.010975 z"
         id="path2597"
         style="stroke-width:2.50034;fill:#ffffff" />
      <path
         d="m 103.81399,68.002539 v -3.919811 h 4.10214 v 3.919811 z m 0,29.89996 V 73.244138 h 4.10214 v 24.658361 z"
         id="path2599"
         style="stroke-width:2.50034;fill:#ffffff" />
      <path
         d="M 129.88533,97.902499 V 82.268804 q 0,-2.438507 -0.47856,-3.783068 -0.47855,-1.344562 -1.52691,-1.937084 -1.04832,-0.592522 -3.07659,-0.592522 -2.96265,0 -4.67187,2.028277 -1.70923,2.028278 -1.70923,5.629053 v 14.289134 h -4.10213 V 78.508605 q 0,-4.307266 -0.13674,-5.264373 h 3.87424 q 0.0227,0.114346 0.0454,0.615202 0.0227,0.501801 0.0454,1.162269 0.0454,0.637883 0.0907,2.438507 h 0.068 q 1.41296,-2.552475 3.25892,-3.600776 1.86875,-1.071075 4.62629,-1.071075 4.05656,0 5.92531,2.028277 1.89153,2.005408 1.89153,6.654484 v 16.431379 z"
         id="path2601"
         style="stroke-width:2.50034;fill:#ffffff" />
      <path
         d="m 149.55276,107.58811 q -4.03376,0 -6.42667,-1.59528 -2.39291,-1.57249 -3.07659,-4.48956 l 4.12491,-0.59252 q 0.41023,1.70915 1.80039,2.6208 1.41295,0.93462 3.69191,0.93462 6.13041,0 6.13041,-7.178684 v -3.965455 h -0.0454 q -1.16227,2.370182 -3.19054,3.578001 -2.02828,1.185044 -4.74025,1.185044 -4.53513,0 -6.67736,-3.008254 -2.11943,-3.008159 -2.11943,-9.45767 0,-6.540611 2.27896,-9.639963 2.30175,-3.122222 6.97362,-3.122222 2.62081,0 4.53514,1.207818 1.93712,1.185138 2.98544,3.395708 h 0.0454 q 0,-0.684188 0.0907,-2.370182 0.0907,-1.686372 0.18229,-1.84589 h 3.89703 q -0.13674,1.230593 -0.13674,5.104855 v 18.847017 q 0,10.392097 -10.32371,10.392097 z m 6.24436,-22.014791 q 0,-3.008254 -0.82046,-5.173274 -0.82045,-2.187795 -2.32454,-3.32729 -1.48133,-1.162269 -3.37286,-1.162269 -3.14497,0 -4.58072,2.278989 -1.43575,2.278988 -1.43575,7.383844 0,5.059305 1.34459,7.269875 1.34459,2.21057 4.60351,2.21057 1.93711,0 3.44123,-1.139495 1.50411,-1.139494 2.32454,-3.25887 0.82046,-2.142246 0.82046,-5.08208 z"
         id="path2603"
         style="stroke-width:2.50034;fill:#ffffff" />
      <g
         id="g5083"
         transform="matrix(0.34052955,0,0,0.34052955,85.107294,-9.924794)">
        <g
           id="g5092"
           transform="translate(1.5539523,1.5539523)">
          <path
             style="fill:none;stroke:#ffffff;stroke-width:1.5;stroke-linecap:butt;stroke-linejoin:miter;stroke-miterlimit:4;stroke-dasharray:none;stroke-opacity:1"
             d="m 100.38371,160.74894 c 0,0 1.5968,10.17454 -9.062179,24.86664 -9.487044,13.07673 -22.417374,22.53612 -22.417374,22.53612"
             id="path4203"
             sodipodi:nodetypes="csc" />
          <rect
             style="fill:#ffffff;stroke:#ffffff;stroke-width:1.5;stroke-linecap:round;stroke-linejoin:round;stroke-miterlimit:4;stroke-dasharray:none;stroke-opacity:1"
             id="rect4756"
             width="30"
             height="30"
             x="192.63542"
             y="62.865696"
             transform="rotate(53.818093)" />
          <path
             sodipodi:type="star"
             style="fill:#808080;fill-opacity:1;stroke:none;stroke-width:6.4252;stroke-linecap:round;stroke-linejoin:round;stroke-opacity:1"
             id="path3014"
             inkscape:flatsided="true"
             sodipodi:sides="6"
             sodipodi:cx="377.25284"
             sodipodi:cy="501.97726"
             sodipodi:r1="89.003006"
             sodipodi:r2="36.078842"
             sodipodi:arg1="1.0452125"
             sodipodi:arg2="1.5688113"
             inkscape:rounded="0"
             inkscape:randomized="0"
             transform="matrix(0.31459674,0,0,0.32397247,-17.699782,-25.132934)"
             inkscape:transform-center-x="0.46558495"
             inkscape:transform-center-y="-1.7713978"
             d="m 421.90726,578.96764 -89.00283,0.17667 -44.65442,-76.99037 44.34841,-77.16705 89.00283,-0.17668 44.65442,76.99038 z" />
        </g>
      </g>
    </g>
  </g>
</svg>
